# xmcd
#
# Track frame offsets: 
#        150
#        14804
#        36365
#        55134
#        76089
#        89052
#        110297
#        122447
#        143629
#        164495
#        184991
#
# Disc length: 2745 seconds
#
# Revision: 0
# Processed by: cddbd v1.5.2PL0 Copyright (c) Steve Scherf et al.
# Submitted via: ExactAudioCopy v0.99pb4
#
DISCID=920ab70b
DTITLE=Various Artist - Nova 24h - CD 09 - Il est 8h monsieur
DYEAR=2009
DGENRE=
TTITLE0=Dominique A - Le Twenty Two Bar (Edit Nova)
TTITLE1=Guts - I Want You Tonight
TTITLE2=LCD Soundsystem - Time To Get Away
TTITLE3=Sarah Vaughan - Whatever Lola Wants (Gotan Project Remix)
TTITLE4=Noro Morales - Sereneta Ritmica
TTITLE5=Hooka Hey - Brand New Place
TTITLE6=The Hitch-Hikers feat. Mighty Pope - Mr Fortune
TTITLE7=DJ Dolores - Matilha (Pack Of Dogs)
TTITLE8=The Jones Girls - Nights Over Egypt
TTITLE9=Black Uhuru - I Love King Selassie
TTITLE10=Cheikh Lo - Sante Yalla
EXTD=
EXTT0=
EXTT1=
EXTT2=
EXTT3=
EXTT4=
EXTT5=
EXTT6=
EXTT7=
EXTT8=
EXTT9=
EXTT10=
PLAYORDER=
